<svg xmlns="http://www.w3.org/2000/svg" viewBox="0 0 163.73 161.31">
    <defs>
        <style>.cls-1{fill:#fff;}</style>
    </defs>
    <g id="Layer_2" data-name="Layer 2">
        <g id="Layer_1-2" data-name="Layer 1">
            <path class="cls-1"
                d="M145.28,0H20.88A18.45,18.45,0,0,0,2.42,18.45v6h13v-6A5.46,5.46,0,0,1,20.88,13h124.4a5.46,5.46,0,0,1,5.45,5.45V142.86a5.46,5.46,0,0,1-5.45,5.45H20.88a5.46,5.46,0,0,1-5.46-5.45V118.13h-13v24.73a18.45,18.45,0,0,0,18.46,18.45h124.4a18.45,18.45,0,0,0,18.45-18.45V18.45A18.45,18.45,0,0,0,145.28,0Z" />
            <path class="cls-1"
                d="M0,96.46V48a9.39,9.39,0,0,1,2.48-6.9A9.3,9.3,0,0,1,9.4,38.62H24q13.13,0,21.52,6.17a27.93,27.93,0,0,1,9.3,12,39.81,39.81,0,0,1,3.14,15.65,38.35,38.35,0,0,1-3.8,17.3,28.47,28.47,0,0,1-11,12,32.21,32.21,0,0,1-16.93,4.34l-17-.2a9,9,0,0,1-6.77-2.5A9.45,9.45,0,0,1,0,96.46Zm15.48-3.85h7.67q8.64,0,12.94-4.54,5.35-5.64,5.36-15.68,0-10.71-6.18-16.07-4.61-4.14-13.84-4.15H15.48Z" />
            <path class="cls-1"
                d="M65.06,70.37a35.8,35.8,0,0,1,2.42-13.23,31.37,31.37,0,0,1,6.91-10.69,31,31,0,0,1,10.65-7A35.7,35.7,0,0,1,98.42,37,41.76,41.76,0,0,1,107,38a22.43,22.43,0,0,1,8.09,3.35,7.09,7.09,0,0,1,3.42,6.07A8.48,8.48,0,0,1,117,52.62a5.29,5.29,0,0,1-4.5,2.07,18.92,18.92,0,0,1-5.77-1.5,21.16,21.16,0,0,0-7.88-1.73A15.56,15.56,0,0,0,83.42,61.63a27.84,27.84,0,0,0-1.87,10.46q0,11.61,5.77,17a16.09,16.09,0,0,0,11.43,4.24,15.73,15.73,0,0,0,6.15-1l4.57-2.12a8.63,8.63,0,0,1,3-.72,6,6,0,0,1,4.89,2.17,7.82,7.82,0,0,1,1.78,5.11c0,2.92-1.59,5.31-4.77,7.19q-6.39,3.84-16.47,3.85a34.27,34.27,0,0,1-12.23-2.24,30.08,30.08,0,0,1-10.34-6.48Q65.05,89.31,65.06,70.37Z" />
        </g>
    </g>
</svg>