<svg width="103" height="61" viewBox="0 0 103 61" fill="none" xmlns="http://www.w3.org/2000/svg">
<path d="M40.5339 78.1741V82.4079C33.5422 80.1375 27.4513 75.7108 23.1369 69.7642C18.8224 63.8176 16.5067 56.6574 16.5227 49.3131C16.5387 41.9689 18.8856 34.8189 23.2258 28.8911C27.5661 22.9633 33.6763 18.563 40.6778 16.3231V21.4684H62.1415V16.4257C69.0993 18.7176 75.1541 23.1475 79.441 29.0825C83.728 35.0176 86.0277 42.1542 86.0118 49.473C85.9958 56.7918 83.665 63.9184 79.3522 69.8347C75.0394 75.751 68.9653 80.1545 61.9976 82.4161V78.1741H40.5339Z" fill="#8DAEDD"/>
<path d="M50.0376 44.7601C50.3705 44.6349 50.6398 44.5856 50.6768 44.2119L50.1588 44.1092C50.1177 44.3248 50.0931 44.5076 50.0376 44.7601Z" fill="#3CA37E"/>
<path d="M52.4301 45.3761C52.2246 45.8586 51.7272 46.0208 51.3737 46.3575C51.1497 45.9469 51.1517 45.9592 50.7776 46.2158C50.6933 46.2632 50.6054 46.3037 50.5146 46.337C50.233 46.4704 50.2186 46.5054 50.2967 46.8934L50.5598 46.4828C50.827 46.8359 51.2504 46.3431 51.5381 46.7435C51.5196 47.4868 51.7724 47.6983 52.5226 47.5833C52.6994 47.341 52.0725 46.9673 52.6644 46.7825L52.9111 46.9879C53.094 46.8955 53.2009 46.7969 53.1166 46.5916C53.0124 46.4134 52.9387 46.2191 52.8987 46.0167C52.8894 45.8765 52.8404 45.7419 52.7575 45.6285C52.6745 45.5151 52.561 45.4275 52.4301 45.3761Z" fill="#3CA37E"/>
<path d="M51.4086 56.6688C51.238 56.7406 51.127 56.9562 50.9976 57.104L51.088 57.2149C51.4395 57.1102 51.8402 57.1246 52.1054 56.8043C52.276 56.6272 52.5024 56.5141 52.7466 56.484C52.9706 56.4617 53.1872 56.3917 53.3817 56.2787C52.6295 56.0713 52.0211 56.4121 51.4086 56.6688Z" fill="#3CA37E"/>
<path d="M50.4016 45.2241L50.4303 45.3391L50.8558 45.5444C50.8928 45.2077 50.9257 44.9285 50.9606 44.6C50.5393 44.6308 50.7098 45.1317 50.4016 45.2241Z" fill="#3CA37E"/>
<path d="M53.0055 52.9914C52.9705 53.005 52.9396 53.0271 52.9155 53.0559C52.8914 53.0846 52.875 53.1189 52.8678 53.1557C52.8784 53.192 52.8978 53.225 52.9244 53.2519C52.9509 53.2788 52.9838 53.2986 53.0199 53.3097C53.1862 53.3217 53.3531 53.3217 53.5193 53.3097C53.4268 52.973 53.2275 52.9442 53.0055 52.9914Z" fill="#3CA37E"/>
<path d="M49.0901 50.7268C48.9935 50.7781 48.8394 50.8541 48.8353 50.9321C48.8168 51.353 48.5927 51.7 48.453 52.0757C48.3851 52.2564 48.3502 52.4494 48.2927 52.6342C48.2454 52.7841 48.1878 52.9299 48.1364 53.0674C48.6708 53.3816 48.6729 53.3857 48.5475 53.9811C48.5308 54.0607 48.5253 54.1423 48.5311 54.2234C48.5311 54.2686 48.5701 54.3096 48.6009 54.3712H48.9915C48.9647 53.8928 49.236 53.4493 49.123 52.9627C49.123 52.9196 49.2792 52.8026 49.3737 52.7841C49.4313 52.7738 49.5793 52.9134 49.5793 52.9442C49.4539 53.3035 49.8588 53.4801 49.8609 53.7963C49.8609 53.8497 50.0458 53.9626 50.1034 53.9421C50.3624 53.8476 50.6049 53.7121 50.8495 53.5951C50.4795 53.4596 50.4918 53.4575 50.3911 53.0387C50.3644 52.9237 50.2514 52.8334 50.1753 52.7307C50.0643 52.5829 49.8321 52.5254 49.8156 52.3611L51.1475 51.5727C50.759 51.3674 50.5473 51.778 50.2699 51.7226C49.9307 51.6445 49.7375 51.8848 49.4477 52.0408C49.2837 51.8841 49.1357 51.7115 49.0058 51.5255C48.9618 51.4648 48.9359 51.3929 48.9311 51.3181C48.9263 51.2434 48.9428 51.1688 48.9788 51.103C49.0147 51.0372 49.0686 50.983 49.1341 50.9465C49.1997 50.9101 49.2742 50.893 49.3491 50.8972C49.6409 50.8828 49.9328 50.8725 50.2226 50.8828C50.5967 50.8951 50.9687 50.9259 51.3427 50.9567C51.4386 50.9736 51.537 50.9686 51.6306 50.9421C51.7243 50.9156 51.8107 50.8683 51.8834 50.8037C51.9562 50.7392 52.0134 50.659 52.0507 50.5692C52.0881 50.4794 52.1046 50.3824 52.0991 50.2853C52.0273 50.3229 51.9585 50.3662 51.8936 50.4147C51.7758 50.5293 51.631 50.6123 51.4726 50.6561C51.3141 50.6999 51.1471 50.703 50.9872 50.6652C50.5268 50.5728 50.0561 50.5338 49.6204 50.4763C49.4313 50.5604 49.2566 50.6344 49.0901 50.7268Z" fill="#3CA37E"/>
<path d="M49.4169 43.7848C49.4637 43.7635 49.505 43.7316 49.5373 43.6916C49.5696 43.6516 49.5922 43.6047 49.6032 43.5544C49.6141 43.5042 49.6132 43.4521 49.6005 43.4023C49.5878 43.3524 49.5636 43.3063 49.5299 43.2674C49.4148 43.1134 49.2607 42.9348 48.9853 43.0621C49.0613 43.1791 49.1312 43.2818 49.1908 43.3886C49.2504 43.4953 49.3306 43.6308 49.4169 43.7848Z" fill="#3CA37E"/>
<path d="M48.1756 56.8084C48.5065 56.8597 48.7449 57.2478 49.1519 57.0774C48.8806 56.7037 48.562 56.6072 48.1756 56.8084Z" fill="#3CA37E"/>
<path d="M50.7097 56.0056C50.493 56.1126 50.2564 56.1739 50.0149 56.1856C49.7734 56.1972 49.532 56.159 49.306 56.0733C49.1832 56.0262 49.0486 56.0195 48.9218 56.0542C48.7949 56.0889 48.6825 56.1633 48.601 56.2663C49.3697 56.5086 50.2391 56.4142 50.7097 56.0056Z" fill="#3CA37E"/>
<path d="M56.0413 57.8637L55.2767 57.9356C55.7926 58.1717 55.7926 58.1717 56.0413 57.8637Z" fill="#3CA37E"/>
<path d="M51.1373 44.9346L51.2237 44.9736L51.384 44.6246L51.3018 44.5876L51.1373 44.9346Z" fill="#3CA37E"/>
<path d="M66.6815 54.8024L65.5079 54.3384C65.4237 54.1577 65.3908 53.9421 65.2675 53.8518C64.9712 53.6204 64.6431 53.433 64.2932 53.2953C63.1998 52.9134 62.0899 52.5747 60.9862 52.2215C60.8004 52.1572 60.6092 52.1098 60.4149 52.0798C60.2956 52.0655 60.0839 52.0798 60.0613 52.1496C59.9606 52.4227 59.7304 52.4207 59.5187 52.5028C59.3646 52.5623 59.2536 52.7266 59.12 52.8416C58.9864 52.9565 58.859 53.0572 58.6987 53.1886C58.5924 53.0421 58.4742 52.9048 58.3451 52.7779C57.9526 52.4617 57.9485 52.4679 58.1396 52.0039L57.9341 51.6343C57.6032 51.5419 57.2784 51.3591 56.9825 51.3941C56.6558 51.4377 56.3556 51.5965 56.1357 51.8417C56.3412 51.9648 56.5467 52.0182 56.6248 52.1496C56.7831 52.4248 57.0112 52.4227 57.2599 52.4104C57.3709 52.3869 57.4837 52.3731 57.597 52.3693C57.6772 52.3693 57.745 52.4617 57.819 52.511C57.7553 52.5747 57.7018 52.6794 57.6278 52.6958C57.3648 52.7574 57.0955 52.7882 56.8057 52.8354L57.3463 53.5684L57.6977 53.1783C57.8717 53.286 58.053 53.3814 58.2403 53.4637C58.7644 53.6526 59.2906 53.8312 59.825 53.9893C60.2463 54.1166 60.5628 54.3281 60.6841 54.7778C60.7185 54.8864 60.7768 54.9861 60.8547 55.0693C61.0335 55.2746 61.2267 55.48 61.0952 55.8249C61.4117 55.8085 61.6624 55.8475 61.8166 56.1C61.9707 56.3526 62.2461 56.4265 62.5318 56.4614C62.7559 56.4901 62.9778 56.5435 63.2019 56.5784C63.3233 56.6096 63.4518 56.5968 63.5647 56.5423C63.6776 56.4878 63.7675 56.3951 63.8185 56.2807L63.4547 56.1452C63.6808 55.9707 63.8308 55.8619 63.9747 55.7346C64.1905 55.5559 64.4166 55.3937 64.7146 55.5025C65.0126 55.6114 65.2531 55.7222 65.5162 55.8413C65.5736 55.8725 65.6239 55.9151 65.6641 55.9666C65.9108 56.2458 66.141 56.5415 66.4061 56.8002C66.5467 56.9281 66.7169 57.0191 66.9014 57.065C67.3557 57.1862 67.8181 57.2704 68.2929 57.3792L68.3607 57.2067C68.2099 57.161 68.065 57.0976 67.9291 57.0178C67.6455 56.792 67.4584 56.4573 67.107 56.2889C67.0433 56.2581 67.0165 56.1575 66.961 56.0959C66.8759 55.9797 66.7741 55.8767 66.6589 55.79C66.5502 55.7227 66.4572 55.6329 66.3863 55.5267C66.3154 55.4204 66.2682 55.3001 66.2479 55.174L66.6918 54.9194L66.6815 54.8024Z" fill="#3CA37E"/>
<path d="M42.6509 52.2934C42.6509 52.7861 42.8769 52.9483 43.3702 52.9093L43.7052 52.8806L43.847 53.1372C44.1598 53.0873 44.4758 53.0598 44.7925 53.0551C44.953 53.0478 45.1122 53.0877 45.2502 53.1698C45.3883 53.2519 45.4993 53.3727 45.5694 53.5171C45.8262 53.4826 46.0638 53.3625 46.2437 53.1761C46.4235 52.9897 46.535 52.7481 46.5601 52.4905C46.5483 52.3121 46.6032 52.1358 46.7142 51.9956C47.0024 51.6707 47.2257 51.2937 47.3719 50.8849C47.3834 50.8363 47.4054 50.7908 47.4364 50.7516C47.4675 50.7125 47.5067 50.6806 47.5514 50.6583C47.5961 50.636 47.6452 50.6237 47.6951 50.6224C47.7451 50.6211 47.7947 50.6308 47.8405 50.6508C47.9268 50.6568 48.0135 50.6492 48.0974 50.6282C47.8919 50.4229 47.7419 50.2997 47.6083 50.158C47.5548 50.1026 47.4788 49.9897 47.4993 49.9527C47.6556 49.7125 47.4459 49.6139 47.3514 49.4558C47.2804 49.3114 47.2431 49.1527 47.2424 48.9918C47.2485 48.8678 47.2699 48.745 47.3061 48.6263L47.746 48.5462C47.7604 48.4189 47.7707 48.3266 47.7809 48.2383L48.3091 48.0699C48.0831 47.9508 47.9269 47.8646 47.7665 47.7866C47.561 47.6921 47.3986 47.6449 47.2959 47.3759C47.1726 47.0495 46.7882 47.0145 46.5745 47.3369C46.5271 47.4014 46.4858 47.4701 46.4511 47.5422C46.3837 47.7246 46.2522 47.8764 46.0812 47.9693C45.9182 48.0922 45.7363 48.1879 45.5427 48.2526C45.3505 48.3326 45.1826 48.4615 45.0556 48.6263C44.7349 48.9548 44.4636 49.3614 44.0094 49.4948C43.8748 49.5239 43.7506 49.5886 43.6497 49.6821C43.5488 49.7757 43.475 49.8947 43.436 50.0266C43.325 50.351 43.2551 50.3777 42.9242 50.2976C42.8132 50.2709 42.7063 50.2217 42.5974 50.1847C42.248 50.0636 42.0897 50.156 41.9808 50.5091C41.8554 50.9444 42.061 51.3017 42.322 51.5788C42.4253 51.6671 42.5082 51.7767 42.565 51.9C42.6217 52.0234 42.651 52.1576 42.6509 52.2934V52.2934Z" fill="#3CA37E"/>
<path d="M42.6406 39.2616C42.7681 39.0563 42.6879 38.9249 42.4598 38.8756C42.3796 38.8592 42.2974 38.8551 42.1844 38.8427C41.7601 38.9222 41.3577 39.0916 41.0046 39.3396C40.9652 39.3768 40.9346 39.4222 40.9151 39.4726C40.8955 39.5231 40.8875 39.5772 40.8916 39.6312C40.9368 39.8837 41.428 40.1527 41.6787 40.0624C42.0804 39.911 42.4192 39.6289 42.6406 39.2616V39.2616Z" fill="#3CA37E"/>
<path d="M50.5598 42.5878C50.2432 42.3825 50.2473 42.3825 49.9576 42.7274L50.2741 43.0292L50.3768 42.7705L51.2647 43.5569L51.3511 43.4974C51.3141 43.4153 51.2873 43.2715 51.2339 43.2592C50.9379 43.1976 50.9112 42.982 50.9194 42.7541C50.7958 42.7072 50.6756 42.6517 50.5598 42.5878V42.5878Z" fill="#3CA37E"/>
<path d="M38.1723 50.9464L38.051 50.5358L37.6954 50.7411C37.6532 50.6612 37.6066 50.5838 37.5557 50.5091C37.4611 50.3798 37.3501 50.2586 37.2535 50.1354C37.1528 50.2504 37.048 50.2484 37.0048 50.0985C36.9226 49.85 36.7048 49.7864 36.5095 49.6652C35.9998 49.349 35.5065 49.0062 35.0235 48.651C34.8991 48.5224 34.792 48.3781 34.7049 48.2218C34.6556 48.1582 34.5857 48.0637 34.5282 48.0658C34.0847 48.0788 33.6435 47.9984 33.2333 47.8297C33.1788 47.9253 33.1634 48.0382 33.1902 48.1449C33.217 48.2517 33.284 48.3439 33.3772 48.4025C33.5396 48.5401 33.7225 48.6489 33.891 48.7803C34.1018 48.9303 34.3023 49.0942 34.4912 49.271C34.6967 49.4763 34.8303 49.7679 35.0585 49.9342C35.3217 50.1314 35.5182 50.4044 35.6216 50.7165C35.647 50.8248 35.7026 50.9238 35.7819 51.0019C36.2814 51.3366 36.4848 51.8375 36.6349 52.3858C36.6736 52.5413 36.7633 52.6793 36.8897 52.7779C37.5474 53.2029 37.9688 53.9421 38.758 54.1926C38.8204 54.2166 38.8712 54.2637 38.8998 54.324C38.9964 54.5478 39.2102 54.4574 39.3623 54.478C39.5396 54.4712 39.7148 54.438 39.8823 54.3794C39.9131 54.0591 39.9501 53.7039 39.9809 53.3528C40.0282 52.8272 39.9645 52.7369 39.4733 52.5849C39.3623 52.548 39.2061 52.4679 39.1814 52.3796C39.0807 51.9895 38.7868 51.8458 38.4168 51.7452L38.5237 51.0573L38.1723 50.9464Z" fill="#3CA37E"/>
<path d="M41.0806 55.5929C41.2815 55.6475 41.4889 55.6744 41.6972 55.6729C42.0389 55.646 42.3812 55.7172 42.6837 55.8783C42.8333 55.937 42.9917 55.9704 43.1523 55.9768C43.7299 56.0364 44.3321 55.8968 44.885 56.1821C44.9199 56.2022 44.959 56.2141 44.9992 56.217C45.0394 56.2198 45.0798 56.2135 45.1172 56.1986C45.3001 56.0651 45.4666 56.1555 45.6269 56.215C45.8777 56.3053 45.9332 56.1801 45.9702 55.9768C45.9162 55.955 45.8605 55.9379 45.8037 55.9255C45.5406 55.8947 45.2426 56.0035 45.035 55.7345C45.0144 55.7079 44.9425 55.714 44.8932 55.7161C44.5438 55.7304 44.2416 55.6565 44.0711 55.3054C44.0344 55.2524 43.9807 55.2133 43.919 55.1946C43.6148 55.0816 43.3024 54.9769 42.9961 54.8681C42.9077 54.9769 42.8379 55.1412 42.7474 55.1555C42.3651 55.2089 41.989 55.2603 41.6232 54.9995C41.3515 54.8268 41.0484 54.7096 40.7312 54.6546C40.4995 54.6436 40.2674 54.6671 40.0426 54.7244L39.7302 55.135C39.8885 55.1904 40.057 55.2028 40.1413 55.2931C40.2247 55.3674 40.3224 55.4239 40.4284 55.4592C40.5344 55.4945 40.6465 55.5079 40.7579 55.4984C40.8673 55.5232 40.9751 55.5548 41.0806 55.5929V55.5929Z" fill="#3CA37E"/>
<path d="M52.9705 29.7018C53.176 29.9256 53.3816 30.1125 53.2459 30.4718C53.2048 30.5806 53.3528 30.7613 53.4206 30.905C53.4309 30.9255 53.4761 30.9276 53.5049 30.9358L53.6261 30.7551L53.7967 30.8701C54.1359 30.6484 54.0269 30.2829 54.105 29.979C54.2078 29.5889 53.994 29.3302 53.7474 29.0838C53.6857 29.0202 53.6138 28.9668 53.5419 28.9093L53.5706 28.8066L54.1626 28.8436L54.3003 28.4925C54.8819 28.6855 55.3279 28.0469 55.9569 28.2215V28.9093L56.3967 29.0161L56.8756 28.4001C56.818 28.2851 56.7687 28.1804 56.6947 28.0326L57.7388 28.1886L57.969 27.8211L58.1746 28.2317C58.3472 27.7923 58.304 27.3981 58.7439 27.2051V27.7964C59.0234 27.6055 59.1549 27.3981 59.0953 27.1353C58.9967 26.6241 58.8898 26.1087 58.748 25.6139C58.6802 25.3736 58.6719 25.2032 58.9104 25.0739C58.9674 25.0356 59.0192 24.99 59.0645 24.9384C59.0477 24.6823 59.0168 24.4273 58.972 24.1746C58.824 23.5586 58.339 23.1192 58.08 22.5607C58.08 22.5607 58.0492 22.5607 58.0142 22.5607C58.0142 22.6593 58.004 22.7661 57.9978 22.9016L57.5045 22.7763C57.5354 23.1582 57.56 23.4765 57.5867 23.8029C57.6248 23.8006 57.6628 23.8073 57.6979 23.8223C57.7329 23.8373 57.7639 23.8603 57.7885 23.8894C57.813 23.9185 57.8305 23.953 57.8393 23.99C57.8482 24.027 57.8483 24.0656 57.8395 24.1027C57.8105 24.5428 57.748 24.98 57.6525 25.4106C57.5641 25.7248 57.4124 26.0175 57.2065 26.2709C56.929 26.6158 56.6269 26.5337 56.4399 26.1149C56.4255 26.0841 56.3823 26.0676 56.3371 26.0327C56.2076 26.544 56.0864 27.0285 55.9589 27.5357C55.7304 27.5181 55.5009 27.5181 55.2724 27.5357C55.0483 27.5828 54.8283 27.648 54.6147 27.7307C54.0269 27.9584 53.5458 28.398 53.2665 28.9627C53.2149 29.0424 53.1443 29.108 53.0609 29.1536C52.7814 29.361 52.7526 29.4513 52.9705 29.7018Z" fill="#3CA37E"/>
<path d="M53.7926 50.7945C53.8707 51.3017 53.918 51.3694 54.1626 51.5111L53.9344 50.9752L54.3455 50.9239C54.3256 50.8194 54.3256 50.7121 54.3455 50.6077C54.4079 50.5097 54.4856 50.4224 54.5757 50.349L54.4935 50.2463L53.9612 50.5481C53.9797 50.3777 53.9982 50.1909 54.0187 50.004C53.6899 50.2176 53.7597 50.5091 53.7926 50.7945Z" fill="#3CA37E"/>
<path d="M54.8842 29.6505L54.9479 29.1762C55.1252 29.1879 55.303 29.1879 55.4802 29.1762C55.5604 29.1639 55.6858 29.09 55.6858 29.0243C55.6977 28.9728 55.6974 28.9192 55.6849 28.8679C55.6724 28.8166 55.6481 28.7689 55.6138 28.7286C55.5622 28.6957 55.5038 28.6748 55.443 28.6673C55.3822 28.6598 55.3205 28.6661 55.2624 28.6855C55.0568 28.7902 54.8842 28.977 54.6026 28.9237C54.5492 28.9237 54.4094 29.0961 54.3971 29.1988C54.3806 29.3713 54.6252 29.5827 54.8842 29.6505Z" fill="#3CA37E"/>
<path d="M60.347 55.8988C60.7746 55.9707 60.8259 55.9399 60.9164 55.5764C60.5916 55.4512 60.4436 55.6175 60.347 55.8988Z" fill="#3CA37E"/>
<path d="M55.8747 53.3672C55.6116 53.014 55.3609 52.7779 55.03 52.819C54.8272 52.8613 54.6205 52.8826 54.4134 52.8826C54.3209 52.8826 54.2243 52.9524 54.1297 52.9914C54.3972 53.0728 54.673 53.1238 54.9519 53.1434C55.2314 53.1886 55.4965 53.2727 55.8747 53.3672Z" fill="#3CA37E"/>
<path d="M49.8116 40.395C49.7546 40.2614 49.7065 40.1242 49.6677 39.9843L48.7777 39.855C48.7325 40.0747 48.6852 40.2656 48.6565 40.4463C48.6174 40.7173 48.6873 41.0787 48.5373 41.2409C48.3153 41.4791 48.4674 41.6392 48.4879 41.8363C48.5311 42.2223 48.8846 42.403 49.0593 42.7048C49.1744 42.9102 49.456 42.867 49.6965 42.674C49.6122 42.4153 49.5197 42.1895 49.4683 41.9534C49.4414 41.8505 49.4427 41.7423 49.472 41.6401C49.5012 41.5379 49.5575 41.4454 49.6348 41.3723C49.976 41.0397 50.0068 40.7974 49.8116 40.395Z" fill="#3CA37E"/>
<path d="M47.9639 45.1913L47.9783 45.1646L47.9516 45.179V45.1913C47.9516 45.1913 47.9516 45.2077 47.9516 45.218L47.9701 45.2016L47.9639 45.1913Z" fill="#3CA37E"/>
<path d="M16.6861 45.992C16.6984 45.8647 16.7108 45.7395 16.7251 45.6122C16.7108 45.7477 16.6984 45.873 16.6861 45.992Z" fill="#3CA37E"/>
<path d="M16.8339 44.717C16.8544 44.5651 16.875 44.4152 16.8976 44.2653C16.875 44.4152 16.8544 44.5651 16.8339 44.717Z" fill="#3CA37E"/>
<path d="M16.756 45.3494C16.7704 45.2118 16.7868 45.0763 16.8053 44.9387C16.7971 45.0763 16.7704 45.2118 16.756 45.3494Z" fill="#3CA37E"/>
<path d="M23.9496 47.5525C24.0605 47.5301 24.1639 47.4803 24.2504 47.4075C24.337 47.3348 24.4038 47.2414 24.4447 47.1361C24.4857 47.0308 24.4994 46.9169 24.4847 46.8049C24.47 46.6928 24.4274 46.5863 24.3607 46.4951C24.2093 46.2634 24.0403 46.0437 23.8551 45.8381C23.7155 45.7158 23.5656 45.6059 23.407 45.5095C23.3063 46.0906 23.1624 46.5361 23.2179 47.0145C23.2243 47.1005 23.2492 47.1841 23.291 47.2596C23.3327 47.335 23.3903 47.4006 23.4599 47.4517C23.5294 47.5028 23.6091 47.5383 23.6937 47.5557C23.7782 47.5731 23.8655 47.572 23.9496 47.5525V47.5525Z" fill="#3CA37E"/>
<path d="M16.9203 44.1195C17.1681 42.4927 17.5321 40.8857 18.0096 39.3109C17.5323 40.8858 17.1683 42.4928 16.9203 44.1195V44.1195Z" fill="#3CA37E"/>
<path d="M48.788 35.266C48.3813 35.5086 48.063 35.8749 47.8795 36.3111C47.7808 36.5889 47.7893 36.8934 47.9033 37.1653C48.0174 37.4371 48.2287 37.6567 48.4961 37.7812C48.7017 37.1488 48.9072 36.5493 49.1127 35.9518C49.2093 35.6562 49.1559 35.5412 48.788 35.266Z" fill="#3CA37E"/>
<path d="M18.3919 40.5017C18.7249 41.3559 19.099 42.1956 19.4792 43.0313C19.751 43.646 20.0542 44.2463 20.3876 44.8299C20.5936 45.1644 20.8533 45.4627 21.1563 45.7128C21.2951 45.8486 21.4811 45.9255 21.6753 45.9274C21.8695 45.9293 22.057 45.8561 22.1984 45.7231C22.7019 45.3432 23.0575 44.8628 23.0719 44.1996C23.0719 43.8218 23.0719 43.444 23.0596 43.0683C23.0391 42.771 23.0903 42.4732 23.2091 42.1998C23.3278 41.9265 23.5106 41.6856 23.7419 41.4975C24.4592 40.9001 25.2279 40.3601 25.8527 39.6497C25.8762 39.6259 25.9042 39.6071 25.935 39.5942C26.6145 39.3306 27.1664 38.816 27.4764 38.157C27.5443 38.0153 27.8258 37.8428 27.9451 37.8818C28.3253 38.0091 28.5616 37.8038 28.8371 37.6355C29.3673 37.3151 29.8791 37.4301 30.1895 37.9578C30.4242 38.3917 30.7668 38.758 31.1842 39.0214C31.3117 39.0994 31.4802 39.276 31.4658 39.3848C31.435 39.625 31.5562 39.701 31.7145 39.7954C31.7901 39.8574 31.8512 39.9352 31.8933 40.0233C32.1285 40.3832 32.2456 40.8074 32.2283 41.2368C32.2078 41.5427 32.3393 41.6474 32.6127 41.5325C32.9042 41.3927 33.1799 41.222 33.4348 41.0233C33.5259 40.9264 33.5996 40.8146 33.6527 40.6927C34.1398 41.1464 34.557 41.5633 34.6577 42.0807C34.7831 42.7315 35.0935 43.3537 35.0688 44.0189C35.0503 44.5835 35.1448 45.1605 34.9722 45.7231C34.95 45.7683 34.9377 45.8177 34.9361 45.8681C34.9346 45.9185 34.9439 45.9686 34.9634 46.0151C34.9828 46.0615 35.012 46.1033 35.049 46.1376C35.086 46.1719 35.1299 46.1979 35.1777 46.2138C35.3878 46.309 35.5759 46.4466 35.7301 46.618C35.8843 46.7894 36.0014 46.9908 36.0738 47.2096C36.2383 47.6038 36.3719 48.0083 36.5281 48.4046C36.6721 48.7818 36.894 49.1245 37.1795 49.4104C37.4649 49.6962 37.8074 49.9188 38.1847 50.0636C38.3741 50.122 38.5679 50.1652 38.7643 50.1929C38.7518 49.9924 38.7229 49.7933 38.6779 49.5975C38.3635 48.6468 37.9647 47.7681 36.9453 47.3389C36.5603 47.1402 36.256 46.8145 36.0841 46.4171C35.7285 45.7395 35.447 45.0619 35.7388 44.2612C35.8621 43.9224 35.8375 43.5302 35.8889 43.1011L36.4664 43.06C36.3739 43.5118 36.6904 43.5426 36.9556 43.6288C37.0645 43.6657 37.1734 43.7068 37.2824 43.7376C37.4019 43.7628 37.5133 43.8173 37.6066 43.8961C37.6999 43.975 37.7721 44.0757 37.8167 44.1893C37.8935 44.3588 38.011 44.5066 38.1587 44.6198C38.3064 44.733 38.4798 44.808 38.6635 44.8381C38.8736 44.9028 39.0796 44.9803 39.2801 45.0701C39.2431 45.3022 39.2144 45.4808 39.1794 45.6861C39.7631 45.4048 40.2975 45.1605 40.8237 44.8936C41.0557 44.7833 41.2567 44.6171 41.4084 44.4099C41.5602 44.2027 41.658 43.9611 41.6931 43.7068C41.7656 43.3013 41.7393 42.8843 41.6162 42.4911C41.4931 42.098 41.277 41.7402 40.9861 41.4483C40.4784 40.937 39.9214 40.475 39.3685 40.011C39.2714 39.948 39.1984 39.8543 39.1611 39.7448C39.1238 39.6353 39.1245 39.5164 39.163 39.4074C39.3007 39.0789 39.4384 38.6846 39.7015 38.4875C40.1454 38.159 40.6264 37.7278 41.28 38.044C41.3557 38.0695 41.4345 38.0847 41.5143 38.0892C41.5451 38.5881 41.5615 38.6087 41.9973 38.6662C41.9726 38.5779 41.95 38.5081 41.9356 38.4342C41.8986 38.2494 41.9747 38.1611 42.1658 38.1467C42.851 38.084 43.4857 37.7597 43.9375 37.2412C44.0177 37.307 44.1174 37.3445 44.2211 37.3478C44.3248 37.3512 44.4267 37.3202 44.5109 37.2597C44.598 37.2129 44.6956 37.1889 44.7946 37.1899C45.5653 37.1694 46.0175 36.6191 46.5025 36.1428C46.7612 35.8551 47.0021 35.5521 47.2239 35.2352C47.1726 34.7856 47.448 34.3749 47.7049 33.9499C47.8816 33.6563 48.116 33.3648 48.1776 33.0445C48.2092 32.8211 48.3209 32.6168 48.4921 32.4696L47.6268 31.87L47.9556 31.4594C47.8529 31.059 47.4439 30.983 47.1972 30.6976C47.4685 30.6976 47.6864 30.8393 47.9166 30.673C47.859 30.5991 47.8323 30.5293 47.783 30.4985C47.2424 30.17 46.9033 29.6772 46.5971 29.1433C46.508 29.0072 46.3846 28.8967 46.2394 28.823C45.8921 28.628 45.7955 28.3857 45.9681 28.0367C46.0319 27.9032 46.1182 27.7821 46.1737 27.6486C46.2287 27.5207 46.3111 27.4064 46.4151 27.3138C46.5192 27.2212 46.6423 27.1525 46.7759 27.1127C47.0081 27.0429 47.2486 26.9977 47.4809 26.9444C47.5055 26.5666 47.4809 26.5214 47.1767 26.4639C47.0164 26.4331 46.8499 26.4311 46.6875 26.4044C46.2764 26.3366 45.9188 26.3797 45.6804 26.7986C45.6594 26.8435 45.6264 26.8818 45.5851 26.9094C45.5438 26.9369 45.4958 26.9526 45.4462 26.9547C45.3966 26.9568 45.3473 26.9453 45.3038 26.9214C45.2603 26.8975 45.2242 26.8621 45.1995 26.8191C45.0679 26.4926 44.8048 26.3941 44.5233 26.2565C44.0896 26.0512 44.0115 25.7473 44.2355 25.3326C44.6671 25.386 44.9138 25.1273 45.1296 24.7844C45.2916 24.5172 45.4715 24.2614 45.6681 24.0185C46.0257 23.6079 46.3196 23.6202 46.7389 24.0924C46.6215 24.2389 46.5298 24.4041 46.4676 24.5811C46.4684 24.79 46.5003 24.9976 46.5621 25.1971C46.5251 25.2484 46.4573 25.347 46.3874 25.4435C46.4871 25.4563 46.588 25.4322 46.6711 25.3757C46.9588 25.1868 47.2589 25.0102 47.5281 24.7946C47.9392 24.4579 48.3646 24.5647 48.8045 24.7413C48.8179 24.809 48.8268 24.8776 48.8312 24.9466C48.8312 25.2422 48.8189 25.54 48.8312 25.8336C48.8456 26.0861 48.934 26.1374 49.1847 26.0943C49.7294 26.0019 49.9842 26.1703 50.1857 26.7555L49.9596 26.9608C50.4693 27.4145 50.3028 28.0859 50.531 28.7204C50.8208 28.3323 51.1291 28.1722 51.5586 28.2625C51.6511 28.283 51.8155 28.127 51.8895 28.0161C51.9672 27.8997 52.019 27.768 52.0413 27.6298C52.0637 27.4917 52.0561 27.3503 52.019 27.2154C51.9297 26.7953 51.7146 26.4122 51.4024 26.1169C51.014 25.7658 50.5988 25.4435 50.2021 25.0903C49.9226 24.848 49.8917 24.6653 50.0973 24.3635C50.2309 24.1766 50.3787 24.0002 50.5392 23.8358C50.6802 23.698 50.7899 23.5315 50.8608 23.3477C50.9317 23.1638 50.9622 22.9668 50.9502 22.7702C50.9441 22.6056 50.9747 22.4418 51.0397 22.2905C51.1048 22.1393 51.2027 22.0043 51.3264 21.8955C51.4568 21.755 51.577 21.6055 51.686 21.4479H40.6778V16.3231C35.321 18.0421 30.4609 21.0319 26.5132 25.0367C22.5655 29.0415 19.6478 33.942 18.0096 39.3191C18.1047 39.723 18.2326 40.1185 18.3919 40.5017V40.5017ZM46.706 30.4779C46.556 30.5744 46.5005 30.6217 46.4553 30.6319C46.3956 30.6322 46.3365 30.6218 46.2805 30.6011C46.2805 30.5662 46.2805 30.5334 46.2805 30.5005L46.706 30.4779ZM38.7437 43.4132C38.5012 43.559 38.3532 43.4851 38.2216 43.1668L38.7437 43.4132Z" fill="#3CA37E"/>
<path d="M16.5482 48.0145C16.5482 47.9139 16.5482 47.8091 16.5626 47.7147C16.5565 47.8153 16.5524 47.9139 16.5482 48.0145Z" fill="#3CA37E"/>
<path d="M16.5915 47.3348C16.5915 47.224 16.6058 47.1152 16.6141 47.0063C16.5915 47.1152 16.5915 47.224 16.5915 47.3348Z" fill="#3CA37E"/>
<path d="M16.6285 46.6614C16.6285 46.5443 16.647 46.4273 16.6573 46.3082C16.647 46.4273 16.6367 46.5443 16.6285 46.6614Z" fill="#3CA37E"/>
<path d="M46.7369 56.1092H46.7399V56.1062L46.7369 56.1092Z" fill="#3CA37E"/>
<path d="M46.2806 56.4121L46.7369 56.1082C46.3505 56.1123 46.3505 56.1123 46.2806 56.4121Z" fill="#3CA37E"/>
<path d="M47.3204 56.2684C47.1334 56.0898 46.9361 56.1411 46.7388 56.1082C46.8107 56.4655 46.8498 56.5004 47.1498 56.4614C47.3903 56.4326 47.6308 56.3998 47.8692 56.3587C47.9508 56.3365 48.03 56.3063 48.1056 56.2684V56.1596L47.5527 55.9912C47.6267 56.2992 47.452 56.3916 47.3204 56.2684Z" fill="#3CA37E"/>
<path d="M48.3174 44.5692L47.9783 45.1646L48.2455 45.025C48.5188 44.8792 48.525 44.8238 48.3174 44.5692Z" fill="#3CA37E"/>
<path d="M47.9453 45.2077L47.1601 45.8565C47.5404 45.7662 47.8487 45.5978 47.9453 45.2077Z" fill="#3CA37E"/>
<path d="M56.7895 21.9366C56.8558 22.2003 57.0214 22.4283 57.2519 22.5731L57.7986 22.2753C57.6876 21.9858 57.4287 21.799 57.48 21.4725C57.5488 21.47 57.6176 21.4741 57.6856 21.4849C57.7955 21.5154 57.9033 21.5531 58.0083 21.5978C58.1583 21.6614 58.3022 21.7456 58.4543 21.8031C58.7708 21.9222 58.8653 21.8811 58.9208 21.5362C58.9208 21.5136 58.9208 21.491 58.9352 21.4684H56.8799C56.8179 21.5274 56.7759 21.6041 56.7597 21.688C56.7435 21.772 56.7539 21.8588 56.7895 21.9366Z" fill="#3CA37E"/>
<path d="M52.8986 21.5177L52.9458 21.4684H52.2059C52.4443 21.7764 52.6211 21.7805 52.8986 21.5177Z" fill="#3CA37E"/>
<path d="M68.5252 68.4111C68.6283 68.1399 68.6609 67.8469 68.62 67.5597C68.579 67.2724 68.4658 67.0002 68.2909 66.7685C68.1615 66.5796 68.0032 66.4113 67.8573 66.2326C67.6697 66.0463 67.559 65.7965 67.5469 65.5325C67.5533 65.4236 67.5173 65.3164 67.4464 65.2334C67.3756 65.1504 67.2754 65.0979 67.1667 65.087C66.918 65.0623 66.8974 64.9083 66.8317 64.74C66.696 64.3909 66.5542 64.0419 66.3857 63.7134C66.3228 63.586 66.2142 63.4871 66.0815 63.4362C65.3642 63.2308 65.099 62.6929 64.9983 62.0174C64.9851 61.8559 64.9374 61.6991 64.8586 61.5575C64.7359 61.3633 64.677 61.1358 64.69 60.9066C64.6935 60.646 64.6687 60.3858 64.616 60.1305C64.5905 60.0001 64.5155 59.8845 64.4068 59.808C64.298 59.7315 64.1639 59.6999 64.0323 59.7198C63.6644 59.7342 63.6809 59.7301 63.6213 59.3646C63.5411 58.9335 63.4342 58.5043 63.3232 58.0793C63.2699 57.9554 63.2008 57.8387 63.1177 57.7323C63.0211 57.835 62.9368 57.8822 62.9122 57.9479C62.7066 58.6337 62.4395 59.3051 62.5011 60.0422C62.513 60.1217 62.5081 60.2029 62.4867 60.2804C62.3264 60.6719 62.1599 61.0613 61.9873 61.4487C61.8229 61.8244 61.4365 62.0338 61.1158 61.8839C60.6823 61.6906 60.2651 61.4626 59.8682 61.2023C59.3976 60.882 58.9701 60.5001 58.5117 60.1346C58.5939 59.8163 58.6782 59.4735 58.7707 59.1306C58.783 59.0875 58.8221 59.0279 58.8591 59.0197C59.1879 58.9417 59.2085 58.6091 59.3996 58.3853C59.3037 58.3572 59.2017 58.3572 59.1057 58.3853C59.003 58.414 58.9002 58.492 58.8036 58.4818C58.5948 58.4522 58.3886 58.4062 58.187 58.3442C57.6547 58.1943 57.1244 58.0383 56.5633 57.8781L56.8428 58.3791L55.7597 58.4222C55.6077 58.5092 55.4602 58.6037 55.3178 58.7056C55.2232 58.7815 55.0958 58.8944 55.0937 58.9951C55.1013 59.0562 55.0879 59.118 55.0558 59.1705C55.0237 59.2231 54.9748 59.2633 54.917 59.2846C54.7854 59.3564 54.7115 59.5227 54.6046 59.6439L54.8101 60.0668C54.6395 60.1079 54.4751 60.2085 54.3847 60.1613C54.0825 60.0094 53.8503 60.1141 53.6283 60.3296C53.4228 59.6336 53.3077 59.3605 52.6109 59.57C52.5488 59.5811 52.4911 59.6096 52.4444 59.6521C52.3519 59.7732 52.2738 59.8944 52.0848 59.8102C52.0539 59.7958 51.9368 59.8677 51.9368 59.9026C51.9368 60.2742 51.6018 60.3132 51.4086 60.4344C51.3674 60.6807 51.3305 60.882 51.2976 61.0832L50.7714 60.9928L50.5947 60.9805C51.0057 61.3008 50.8166 61.4671 50.6337 61.6601L50.2535 61.2495L49.7417 61.5041C49.791 61.8757 49.789 62.2022 49.4108 62.4013C49.3142 62.4547 49.2834 62.6231 49.2053 62.734C49.047 62.9824 48.8271 63.198 48.5332 63.1754C47.6309 63.1015 46.8684 63.7462 45.9661 63.6394C45.9504 63.6432 45.9357 63.6502 45.9229 63.66C45.3803 63.9844 44.6527 64.0111 44.3115 64.7441L44.1759 64.2882C43.9971 64.8529 43.8635 65.3149 43.7032 65.7748C43.5161 66.3004 43.8861 66.7665 43.9087 67.3742L43.4976 67.0396C43.5716 67.2552 43.8224 67.4297 43.5572 67.6186C43.5572 67.6186 43.5778 67.6781 43.584 67.7089C43.7093 68.2633 43.8388 68.8156 43.9539 69.372C43.9795 69.5496 43.9946 69.7285 43.9991 69.9079C44.0059 70.186 44.0272 70.4636 44.0628 70.7395C44.1779 71.3554 44.0998 71.9057 43.5798 72.3389C43.3414 72.5442 43.362 72.7639 43.6004 72.9549C43.7772 73.1007 43.9704 73.2259 44.1594 73.3655C44.3142 73.4761 44.4973 73.5404 44.6872 73.5509C44.8772 73.5615 45.0663 73.5178 45.2323 73.4251C45.3803 73.3532 45.5139 73.2567 45.6578 73.1766C46.3525 72.7865 47.0595 72.4539 47.9001 72.6407C48.1275 72.6767 48.3592 72.6767 48.5866 72.6407C48.7017 72.6284 48.8785 72.5586 48.9052 72.4765C49.0203 72.111 49.3162 72.0515 49.6204 71.9673C49.8192 71.8962 50.0095 71.8033 50.1877 71.6901C50.3084 71.6061 50.4453 71.548 50.5896 71.5193C50.7339 71.4907 50.8826 71.4922 51.0263 71.5238C51.3645 71.6121 51.7238 71.5688 52.0313 71.4026C52.4304 71.1991 52.8815 71.1198 53.3262 71.1747C53.7372 71.2199 54.2243 71.0125 54.5121 71.5115C54.5388 71.5587 54.6662 71.5423 54.7443 71.5648C54.9352 71.6123 55.1227 71.6727 55.3054 71.7455C55.5521 71.8544 55.8624 71.9406 55.698 72.3369C55.6948 72.3597 55.697 72.3829 55.7045 72.4047C55.712 72.4264 55.7246 72.4461 55.7412 72.4621C56.1317 72.7988 56.1666 73.2341 56.0967 73.7043C56.0967 73.7413 56.144 73.7864 56.1872 73.8562L57.9938 72.2321C58.1418 72.6181 57.926 72.8933 57.7389 73.1787C57.6403 73.3265 57.5334 73.4723 57.445 73.6242C57.3566 73.7762 57.258 73.961 57.1696 74.1252C57.5067 74.2012 57.5334 74.195 57.5807 73.8562C57.6136 73.6509 57.6177 73.462 57.9136 73.4456C58.0925 73.7987 57.9445 74.1457 57.8849 74.5112L58.3473 74.427C58.3264 74.5755 58.3264 74.7262 58.3473 74.8746C58.4099 75.0171 58.4402 75.1716 58.4359 75.327C58.4317 75.4825 58.393 75.6352 58.3227 75.7739C58.299 75.8347 58.299 75.9021 58.3227 75.9628C58.4645 76.3735 58.6885 76.7574 59.1448 76.856C59.4616 76.931 59.753 77.0882 59.9895 77.3118C60.0779 77.3857 60.2526 77.4637 60.3286 77.4247C60.5747 77.3042 60.8002 77.1455 60.9966 76.9545C61.1055 76.8416 61.1775 76.6897 61.3316 76.7882C61.4077 76.8375 61.4036 77.0141 61.4365 77.1434H61.5433L61.8742 77.8436C61.9606 77.7142 61.9873 77.6259 62.0469 77.591C62.2683 77.4988 62.4803 77.3853 62.6799 77.2523C62.8524 77.1036 63.0542 76.9929 63.2724 76.9274C63.4906 76.862 63.7201 76.8432 63.946 76.8724C64.1147 76.8678 64.277 76.8072 64.4073 76.7001C64.5376 76.593 64.6284 76.4455 64.6654 76.2811C64.8339 75.7431 64.9654 75.1929 65.3847 74.7535C65.6938 74.4173 65.9527 74.0384 66.1534 73.6283C66.3533 73.2343 66.653 72.8994 67.0228 72.6572C67.103 72.6038 67.214 72.5627 67.2551 72.4867C67.4832 72.0658 67.9087 71.7373 67.8449 71.1768C67.8326 71.0639 67.9354 70.9345 67.997 70.8195C68.1615 70.5157 68.3362 70.22 68.4965 69.9141C68.5766 69.7883 68.6191 69.6422 68.6191 69.4932C68.6191 69.3441 68.5766 69.1981 68.4965 69.0722C68.3855 68.8443 68.4451 68.6349 68.5252 68.4111Z" fill="#3CA37E"/>
<path d="M34.0369 30.983C34.035 30.811 33.9899 30.6422 33.9056 30.4921C33.8213 30.342 33.7007 30.2155 33.5547 30.1242C33.4087 30.0329 33.2421 29.9797 33.0701 29.9695C32.8982 29.9594 32.7264 29.9925 32.5707 30.066C32.4149 30.1394 32.2801 30.2508 32.1787 30.3899C32.0773 30.529 32.0125 30.6913 31.9903 30.8619C31.968 31.0325 31.9891 31.206 32.0515 31.3664C32.1139 31.5267 32.2157 31.6689 32.3475 31.7797V66.0561C32.1841 66.1906 32.0663 66.3721 32.0102 66.576C31.9541 66.7799 31.9623 66.9961 32.0338 67.1952C32.1053 67.3942 32.2366 67.5663 32.4098 67.6879C32.5829 67.8096 32.7894 67.8749 33.001 67.8749C33.2127 67.8749 33.4192 67.8096 33.5923 67.6879C33.7655 67.5663 33.8968 67.3942 33.9683 67.1952C34.0398 66.9961 34.048 66.7799 33.9919 66.576C33.9358 66.3721 33.818 66.1906 33.6546 66.0561V31.7797C33.7737 31.6837 33.8698 31.5624 33.936 31.4245C34.0021 31.2867 34.0366 31.1359 34.0369 30.983V30.983Z" fill="#F4F4A6"/>
<path d="M40.1556 30.983C40.1537 30.811 40.1085 30.6422 40.0243 30.4921C39.94 30.342 39.8193 30.2155 39.6733 30.1242C39.5273 30.0329 39.3607 29.9797 39.1888 29.9695C39.0168 29.9594 38.8451 29.9925 38.6893 30.066C38.5336 30.1394 38.3988 30.2508 38.2974 30.3899C38.1959 30.529 38.1311 30.6913 38.1089 30.8619C38.0867 31.0325 38.1078 31.206 38.1702 31.3664C38.2326 31.5267 38.3343 31.6689 38.4661 31.7797V66.0561C38.3028 66.1906 38.185 66.3721 38.1288 66.576C38.0727 66.7799 38.081 66.9961 38.1525 67.1952C38.224 67.3942 38.3553 67.5663 38.5284 67.6879C38.7015 67.8096 38.908 67.8749 39.1197 67.8749C39.3314 67.8749 39.5379 67.8096 39.711 67.6879C39.8841 67.5663 40.0154 67.3942 40.0869 67.1952C40.1584 66.9961 40.1667 66.7799 40.1106 66.576C40.0544 66.3721 39.9366 66.1906 39.7733 66.0561V31.7797C39.8924 31.6837 39.9885 31.5624 40.0546 31.4245C40.1207 31.2867 40.1552 31.1359 40.1556 30.983V30.983Z" fill="#F4F4A6"/>
<path d="M46.2744 30.983C46.2725 30.811 46.2274 30.6422 46.1431 30.4921C46.0588 30.342 45.9382 30.2155 45.7922 30.1242C45.6462 30.0329 45.4796 29.9797 45.3076 29.9695C45.1357 29.9594 44.9639 29.9925 44.8082 30.066C44.6524 30.1394 44.5176 30.2508 44.4162 30.3899C44.3148 30.529 44.25 30.6913 44.2278 30.8619C44.2056 31.0325 44.2266 31.206 44.289 31.3664C44.3514 31.5267 44.4532 31.6689 44.585 31.7797V66.0561C44.4216 66.1906 44.3038 66.3721 44.2477 66.576C44.1916 66.7799 44.1998 66.9961 44.2713 67.1952C44.3429 67.3942 44.4741 67.5663 44.6473 67.6879C44.8204 67.8096 45.0269 67.8749 45.2386 67.8749C45.4502 67.8749 45.6567 67.8096 45.8299 67.6879C46.003 67.5663 46.1343 67.3942 46.2058 67.1952C46.2773 66.9961 46.2856 66.7799 46.2294 66.576C46.1733 66.3721 46.0555 66.1906 45.8922 66.0561V31.7797C46.0112 31.6837 46.1073 31.5624 46.1735 31.4245C46.2396 31.2867 46.2741 31.1359 46.2744 30.983Z" fill="#F4F4A6"/>
<path d="M52.3931 30.983C52.3912 30.811 52.3461 30.6422 52.2618 30.4921C52.1775 30.342 52.0569 30.2155 51.9109 30.1242C51.7649 30.0329 51.5983 29.9797 51.4263 29.9695C51.2544 29.9594 51.0826 29.9925 50.9269 30.066C50.7711 30.1394 50.6363 30.2508 50.5349 30.3899C50.4335 30.529 50.3687 30.6913 50.3465 30.8619C50.3242 31.0325 50.3453 31.206 50.4077 31.3664C50.4701 31.5267 50.5719 31.6689 50.7037 31.7797V66.0561C50.5406 66.1907 50.4231 66.3723 50.3672 66.5761C50.3113 66.78 50.3197 66.9961 50.3913 67.1949C50.4629 67.3938 50.5942 67.5657 50.7673 67.6873C50.9403 67.8088 51.1467 67.8741 51.3583 67.8741C51.5698 67.8741 51.7762 67.8088 51.9493 67.6873C52.1224 67.5657 52.2537 67.3938 52.3253 67.1949C52.3969 66.9961 52.4053 66.78 52.3494 66.5761C52.2935 66.3723 52.176 66.1907 52.0129 66.0561V31.7797C52.1316 31.6835 52.2273 31.5621 52.2931 31.4243C52.3589 31.2864 52.393 31.1357 52.3931 30.983Z" fill="#F4F4A6"/>
<path d="M58.52 30.983C58.5181 30.811 58.473 30.6422 58.3887 30.4921C58.3044 30.342 58.1838 30.2155 58.0378 30.1242C57.8918 30.0329 57.7252 29.9797 57.5532 29.9695C57.3813 29.9594 57.2095 29.9925 57.0538 30.066C56.898 30.1394 56.7632 30.2508 56.6618 30.3899C56.5604 30.529 56.4956 30.6913 56.4734 30.8619C56.4511 31.0325 56.4722 31.206 56.5346 31.3664C56.597 31.5267 56.6988 31.6689 56.8306 31.7797V66.0561C56.6675 66.1907 56.55 66.3723 56.4941 66.5761C56.4381 66.78 56.4466 66.9961 56.5182 67.1949C56.5898 67.3938 56.7211 67.5657 56.8942 67.6873C57.0672 67.8088 57.2736 67.8741 57.4852 67.8741C57.6967 67.8741 57.9031 67.8088 58.0762 67.6873C58.2493 67.5657 58.3806 67.3938 58.4522 67.1949C58.5238 66.9961 58.5322 66.78 58.4763 66.5761C58.4204 66.3723 58.3029 66.1907 58.1398 66.0561V31.7797C58.2585 31.6835 58.3542 31.5621 58.42 31.4243C58.4858 31.2864 58.5199 31.1357 58.52 30.983V30.983Z" fill="#F4F4A6"/>
<path d="M64.6304 30.983C64.6285 30.811 64.5834 30.6422 64.4991 30.4921C64.4148 30.342 64.2941 30.2155 64.1482 30.1242C64.0022 30.0329 63.8355 29.9797 63.6636 29.9695C63.4917 29.9594 63.3199 29.9925 63.1641 30.066C63.0084 30.1394 62.8736 30.2508 62.7722 30.3899C62.6708 30.529 62.606 30.6913 62.5837 30.8619C62.5615 31.0325 62.5826 31.206 62.645 31.3664C62.7074 31.5267 62.8092 31.6689 62.9409 31.7797V66.0561C62.7779 66.1907 62.6603 66.3723 62.6044 66.5761C62.5485 66.78 62.557 66.9961 62.6286 67.1949C62.7002 67.3938 62.8315 67.5657 63.0045 67.6873C63.1776 67.8088 63.384 67.8741 63.5956 67.8741C63.8071 67.8741 64.0135 67.8088 64.1866 67.6873C64.3597 67.5657 64.491 67.3938 64.5626 67.1949C64.6342 66.9961 64.6426 66.78 64.5867 66.5761C64.5308 66.3723 64.4133 66.1907 64.2502 66.0561V31.7797C64.3689 31.6835 64.4646 31.5621 64.5304 31.4243C64.5961 31.2864 64.6303 31.1357 64.6304 30.983V30.983Z" fill="#F4F4A6"/>
<path d="M70.3688 66.0561V31.7797C70.5319 31.6451 70.6494 31.4634 70.7053 31.2596C70.7612 31.0558 70.7528 30.8397 70.6812 30.6408C70.6096 30.442 70.4783 30.27 70.3052 30.1485C70.1322 30.0269 69.9258 29.9617 69.7142 29.9617C69.5027 29.9617 69.2963 30.0269 69.1232 30.1485C68.9501 30.27 68.8188 30.442 68.7472 30.6408C68.6756 30.8397 68.6672 31.0558 68.7231 31.2596C68.779 31.4634 68.8965 31.6451 69.0596 31.7797V66.0561C68.8965 66.1907 68.779 66.3723 68.7231 66.5761C68.6672 66.78 68.6756 66.9961 68.7472 67.1949C68.8188 67.3938 68.9501 67.5657 69.1232 67.6873C69.2963 67.8088 69.5027 67.8741 69.7142 67.8741C69.9258 67.8741 70.1322 67.8088 70.3052 67.6873C70.4783 67.5657 70.6096 67.3938 70.6812 67.1949C70.7528 66.9961 70.7612 66.78 70.7053 66.5761C70.6494 66.3723 70.5319 66.1907 70.3688 66.0561V66.0561Z" fill="#F4F4A6"/>
<path d="M74.8782 39.9186H28.4506C27.7173 39.9186 27.1228 40.5125 27.1228 41.245V56.7037C27.1228 57.4362 27.7173 58.0301 28.4506 58.0301H74.8782C75.6114 58.0301 76.2059 57.4362 76.2059 56.7037V41.245C76.2059 40.5125 75.6114 39.9186 74.8782 39.9186Z" fill="#555658"/>
<path d="M60.6719 32.0199L67.958 34.7281L54.2902 42.9102L59.3175 45.2241L47.2302 54.1946L51.6635 55.5498L35.1428 64.9165L42.8811 58.145L39.1199 56.4511L51.3572 45.5054L45.5345 42.7972L60.6719 32.0199Z" fill="#E9696A"/>
<path d="M41.2102 54.6443C41.2102 54.7531 41.1876 54.8209 41.1403 54.8496C41.0708 54.8762 40.9969 54.8894 40.9224 54.8886C40.6059 54.9194 40.1579 54.9359 39.5824 54.9359C39.1023 54.9503 38.6217 54.9345 38.1436 54.8886C37.9998 54.8585 37.9278 54.7901 37.9278 54.6833C37.9278 54.2727 37.9477 53.6567 37.9874 52.8354C38.0272 52.0141 38.0464 51.3982 38.045 50.9875C38.045 50.7822 37.9874 50.6693 37.8744 50.6364C37.2474 50.5755 36.6172 50.5549 35.9876 50.5748C35.3525 50.5551 34.7169 50.5757 34.0844 50.6364C33.9713 50.6631 33.9138 50.7801 33.9138 50.9875C33.9138 51.3982 33.9261 51.9998 33.9528 52.8067C33.9796 53.6136 33.9919 54.2193 33.9919 54.6238C34.0007 54.6872 33.984 54.7515 33.9455 54.8027C33.907 54.8538 33.8498 54.8877 33.7864 54.8968C33.2986 54.9414 32.8085 54.9572 32.3189 54.9441C31.8716 54.9548 31.4242 54.939 30.9788 54.8968C30.9481 54.896 30.9179 54.8892 30.8899 54.8767C30.8619 54.8641 30.8366 54.8462 30.8156 54.8238C30.7946 54.8015 30.7782 54.7752 30.7674 54.7465C30.7566 54.7178 30.7516 54.6873 30.7527 54.6566C30.7527 54.0968 30.7801 53.2502 30.8349 52.1168C30.8897 50.9834 30.9171 50.1347 30.9171 49.5708C30.9171 48.9685 30.8911 48.0637 30.839 46.8564C30.787 45.6492 30.7609 44.7444 30.7609 44.1421C30.7609 44.0271 30.8144 43.9717 30.9233 43.9717C31.0857 43.9717 31.3344 43.9717 31.6529 43.9943C31.9715 44.0169 32.2202 44.0169 32.3826 44.0169C32.545 44.0169 32.7936 44.0169 33.1348 43.9943C33.476 43.9717 33.7206 43.9717 33.8871 43.9717C33.9755 43.9717 34.0186 44.0168 34.0186 44.1113C34.0186 44.5014 33.9898 45.0825 33.9343 45.8586C33.8789 46.6347 33.848 47.2178 33.848 47.6079C33.848 47.7886 33.8973 47.8954 33.996 47.9262C34.1317 47.9693 34.7955 47.9898 35.9917 47.9898C36.6371 48.0111 37.2832 47.9898 37.9258 47.9262C38.0491 47.8954 38.1128 47.7886 38.1128 47.6079C38.1128 47.2342 38.0943 46.6696 38.0573 45.914C38.0203 45.1584 38.0039 44.5918 38.0039 44.2119C38.0039 44.0518 38.0676 43.9717 38.1971 43.9717C38.3266 43.9717 38.5794 43.9717 38.8877 43.9943C39.196 44.0169 39.4303 44.0169 39.5865 44.0169C39.7427 44.0169 39.9667 44.0169 40.275 43.9943C40.5833 43.9717 40.8176 43.9717 40.9738 43.9717C41.13 43.9717 41.1999 44.0333 41.1999 44.1585C41.1999 44.754 41.1752 45.6546 41.1259 46.8606C41.0766 48.0665 41.0519 48.9699 41.0519 49.5708C41.0519 50.1361 41.0786 50.9848 41.1321 52.1168C41.1855 53.2488 41.2115 54.0913 41.2102 54.6443Z" fill="white"/>
<path d="M54.2696 54.6443C54.2696 54.8044 54.1935 54.8845 54.0435 54.8845H51.2832C51.1331 54.8845 51.0571 54.7942 51.0571 54.6114C51.0571 54.0872 51.0763 53.3008 51.1146 52.2523C51.153 51.2038 51.1729 50.4174 51.1742 49.8932C51.1742 49.7433 51.1496 49.6611 51.1044 49.6509C51.0468 49.6837 50.6981 50.4858 50.0582 52.0572L48.936 54.8209C48.9199 54.8686 48.893 54.912 48.8573 54.9476C48.8217 54.9832 48.7783 55.0101 48.7305 55.0262C48.6271 55.0322 48.5235 55.0322 48.4201 55.0262C48.1488 55.0262 47.9885 54.9749 47.9351 54.8701C47.661 54.2994 47.2924 53.4685 46.8293 52.3775C46.3401 51.2264 45.9736 50.3935 45.7297 49.8788C45.714 49.8447 45.6899 49.815 45.6598 49.7925C45.6175 49.8599 45.598 49.9391 45.6043 50.0184C45.6043 50.5276 45.6187 51.2914 45.6434 52.3077C45.668 53.3241 45.6824 54.0899 45.6824 54.5971C45.6824 54.7798 45.6105 54.8701 45.4646 54.8701H42.8708C42.768 54.8701 42.7043 54.8537 42.6796 54.8209C42.652 54.7663 42.64 54.7052 42.6447 54.6443C42.6447 54.0803 42.6721 53.2303 42.7269 52.0942C42.7824 50.9608 42.8091 50.1087 42.8091 49.5441C42.8091 48.9418 42.7831 47.8126 42.731 46.1563C42.731 45.7251 42.7077 45.0838 42.6611 44.2324V44.099C42.6611 43.9963 42.7659 43.945 42.9879 43.945C43.2743 43.945 43.7032 43.9354 44.2745 43.9162C44.8459 43.8998 45.2755 43.8895 45.5612 43.8895C45.6187 43.8895 45.6989 43.9984 45.8037 44.216L48.0789 49.2094C48.2413 49.5462 48.3749 49.7145 48.49 49.7145C48.5475 49.7145 48.6709 49.5195 48.8579 49.1314C49.3827 48.0364 50.1596 46.3938 51.1886 44.2037C51.277 43.9984 51.3736 43.8998 51.4764 43.8998C51.6264 43.8998 51.8546 43.8998 52.1587 43.9224C52.4629 43.945 52.6931 43.947 52.8493 43.947C53.0055 43.947 53.1782 43.9327 53.4454 43.908C53.7126 43.8834 53.9119 43.869 54.0414 43.869C54.1709 43.869 54.2757 43.9306 54.2757 44.0559C54.2757 44.6677 54.2538 45.5828 54.21 46.801C54.1661 48.0193 54.1435 48.9343 54.1421 49.5462C54.1421 50.1115 54.1661 50.9601 54.2141 52.0921C54.262 53.2242 54.2805 54.0749 54.2696 54.6443Z" fill="white"/>
<path d="M63.313 46.3411C63.313 46.4458 63.2555 46.4971 63.1404 46.4971C62.943 46.4971 62.1607 46.4581 60.7932 46.3801C60.763 47.6942 60.748 48.6106 60.748 49.1294C60.748 49.7453 60.7726 50.6631 60.822 51.895C60.8713 53.127 60.8959 54.0468 60.8959 54.6587C60.8959 54.7572 60.8713 54.8209 60.8261 54.8455C60.7547 54.8677 60.6808 54.8808 60.6061 54.8845C60.1509 54.9337 59.6931 54.9549 59.2353 54.9482C58.7637 54.9578 58.292 54.9365 57.8232 54.8845C57.7931 54.8832 57.7635 54.8759 57.7362 54.8631C57.7089 54.8503 57.6844 54.8322 57.6641 54.8098C57.6438 54.7875 57.6282 54.7614 57.6181 54.7329C57.6081 54.7045 57.6037 54.6744 57.6054 54.6443C57.6054 54.0297 57.6314 53.1105 57.6835 51.8868C57.7356 50.6631 57.7616 49.7439 57.7616 49.1294C57.7616 48.7187 57.741 47.8153 57.6999 46.4191C56.6599 46.5231 55.831 46.5752 55.213 46.5752C55.1287 46.5752 55.0876 46.5485 55.0876 46.4971C55.1109 46.2951 55.1473 46.0949 55.1965 45.8976C55.2788 45.5342 55.326 45.3145 55.3363 45.2365C55.3528 44.9928 55.3713 44.7485 55.3918 44.5035C55.4288 44.1133 55.4905 43.9203 55.5788 43.9203H55.6878C56.9282 44.05 58.1753 44.1049 59.4223 44.0846C59.8895 44.0846 60.7521 44.0353 62.0099 43.9368L63.0376 43.8587C63.098 43.8514 63.1592 43.8585 63.2164 43.8793C63.2328 43.8916 63.2431 43.9429 63.2472 44.0312C63.2472 44.1708 63.2472 44.3659 63.2328 44.6143C63.2185 44.8628 63.2164 45.0845 63.2164 45.1995C63.2213 45.3907 63.2384 45.5813 63.2678 45.7703C63.2939 45.9595 63.309 46.1501 63.313 46.3411V46.3411Z" fill="white"/>
<path d="M72.1283 52.4638C72.1098 52.8767 72.0658 53.2881 71.9968 53.6957C71.9632 54.0913 71.8797 54.4811 71.7481 54.8558C71.722 54.9013 71.6843 54.939 71.6388 54.9649C71.5932 54.9909 71.5416 55.0043 71.4891 55.0036C71.4113 55.0003 71.3338 54.9928 71.2569 54.981C70.8759 54.9276 69.7688 54.9016 67.9355 54.903C67.5347 54.903 66.9407 54.903 66.1494 54.903C65.3581 54.903 64.7682 54.903 64.3715 54.903C64.2009 54.903 64.1146 54.8291 64.1146 54.6771C64.1146 54.0968 64.1475 53.2235 64.2133 52.0572C64.2791 50.891 64.3113 50.0177 64.3099 49.4373C64.3099 48.8446 64.279 47.7407 64.2174 46.1255C64.2009 45.7149 64.1722 45.0948 64.1311 44.2653V44.1565C64.1208 44.0374 64.1866 43.9778 64.3263 43.9778C64.7114 43.9778 65.2896 43.9881 66.061 44.0086C66.8324 44.0292 67.4107 44.0394 67.7957 44.0394C68.1739 44.0394 68.7453 44.0292 69.5098 44.0086C70.2744 43.9881 70.8465 43.9778 71.226 43.9778C71.4953 43.9778 71.6515 44.0784 71.6926 44.2817C71.7193 44.4008 71.7604 44.7622 71.8138 45.3679C71.8673 45.9736 71.8961 46.339 71.8961 46.4684C71.8961 46.5977 71.8447 46.6326 71.7399 46.6326C71.709 46.6326 71.6535 46.6326 71.5754 46.6326C70.1943 46.519 68.9522 46.4622 67.8491 46.4622C67.5737 46.4622 67.4052 46.5259 67.3435 46.6675C67.3053 46.865 67.2922 47.0664 67.3045 47.2671C67.3045 47.6202 67.3559 47.8523 67.4607 47.9672C67.5305 48.0248 67.6114 48.0676 67.6983 48.093C67.7852 48.1185 67.8764 48.126 67.9663 48.1151C68.0177 48.1151 68.1204 48.1151 68.2705 48.1027C68.4205 48.0904 68.5459 48.1027 68.6445 48.1027C69.2995 48.1027 69.962 48.0843 70.632 48.0473L71.0616 48.0083C71.198 47.9907 71.3352 47.9804 71.4727 47.9775C71.596 47.9775 71.6597 48.037 71.6597 48.1561C71.5916 48.551 71.5449 48.9492 71.5199 49.3491C71.4771 49.7631 71.4559 50.1791 71.4562 50.5954C71.4562 50.698 71.3822 50.7493 71.2301 50.7493L70.5293 50.6713C70.2333 50.6398 69.5578 50.6248 68.5027 50.6262H67.6806C67.4751 50.6262 67.3415 50.6775 67.3065 50.7822C67.3065 50.8068 67.3065 50.969 67.3065 51.2647C67.2885 51.5212 67.315 51.7789 67.3846 52.0264C67.473 52.2318 67.7957 52.3406 68.3815 52.3775H69.5201C69.7942 52.3775 70.2052 52.3529 70.7533 52.3036C71.298 52.2544 71.7029 52.2297 71.9742 52.2297C72.0728 52.1825 72.1283 52.2769 72.1283 52.4638Z" fill="white"/>
<path d="M94.1735 51.741L101.749 50.1909L97.4333 29.1844L89.9663 30.7079C87.3472 25.3119 83.6293 20.5216 79.0505 16.6434L82.2568 9.62137L62.7313 0.718627L59.7285 7.28892C54.311 6.20816 48.7363 6.1754 43.3065 7.19242L40.0858 0.54821L20.7658 9.88624L23.8755 16.3087C19.0658 20.2868 15.1781 25.2607 12.4808 30.8865L5.55848 29.4698L1.24231 50.4742L8.37015 51.9279C8.67657 57.2277 9.96881 62.4241 12.1807 67.251L6.56147 71.5217L19.5552 88.586L25.7212 83.9067C30.1595 87.1935 35.1922 89.5919 40.5421 90.9698V97.5894H61.9975V90.9698C67.5219 89.5454 72.7055 87.0323 77.2439 83.5782L83.4468 88.3006L96.4406 71.2343L90.5685 66.7706C92.6752 62.0215 93.8968 56.9282 94.1735 51.741V51.741ZM61.9975 82.4079V78.1741H40.5338V82.4079C33.5422 80.1375 27.4512 75.7108 23.1368 69.7642C18.8224 63.8176 16.5067 56.6574 16.5227 49.3132C16.5387 41.9689 18.8855 34.8189 23.2258 28.8911C27.5661 22.9633 33.6762 18.5631 40.6777 16.3231V21.4684H62.1414V16.4257C69.0992 18.7176 75.1541 23.1475 79.441 29.0825C83.7279 35.0176 86.0277 42.1542 86.0117 49.473C85.9957 56.7918 83.6649 63.9184 79.3521 69.8347C75.0394 75.751 68.9653 80.1545 61.9975 82.4161V82.4079Z" fill="#F59660"/>
<path d="M62.4086 98H40.1228V91.286C34.9339 89.915 30.0478 87.5855 25.7171 84.418L19.4689 89.163L5.98396 71.4519L11.669 67.1402C9.55662 62.4493 8.30359 57.418 7.96939 52.2851L0.765503 50.7904L5.23993 28.9811L12.2506 30.4184C14.9286 24.9579 18.7171 20.1154 23.374 16.1999L20.217 9.69529L40.2769 0L43.5408 6.7366C48.8176 5.79488 54.2225 5.82619 59.488 6.829L62.5278 0.174523L82.8015 9.414L79.552 16.5304C83.9929 20.3333 87.6137 24.9982 90.1945 30.2418L97.7601 28.6916L102.235 50.5091L94.5661 52.0798C94.2636 57.1025 93.081 62.0332 91.0721 66.6474L97.014 71.1645L83.5229 88.8837L77.2439 84.0997C72.8095 87.4293 67.7717 89.8696 62.4086 91.286V98ZM40.9449 97.1787H61.5865V90.6515L61.8948 90.5715C67.3678 89.1686 72.5029 86.6815 76.9952 83.2579L77.2439 83.069L83.3688 87.7237L95.8651 71.3102L90.0609 66.8999L90.1924 66.6043C92.2811 61.8983 93.4917 56.8508 93.7646 51.7102L93.781 51.3941L101.262 49.8624L97.1209 29.6628L89.7361 31.174L89.5964 30.8865C87.0086 25.5375 83.3247 20.7913 78.7833 16.9555L78.547 16.7501L81.7122 9.82053L62.9348 1.26273L59.9587 7.76116L59.6381 7.69751C54.2752 6.63249 48.7582 6.59835 43.3825 7.5969L43.0742 7.65439L39.8947 1.0841L21.3187 10.0772L24.3852 16.4257L24.1386 16.6311C19.3813 20.5761 15.5313 25.4993 12.8508 31.0652L12.7131 31.3547L5.87914 29.9564L1.73561 50.1498L8.76069 51.5871L8.77919 51.9012C9.07954 57.151 10.3594 62.2985 12.5528 67.0786L12.6905 67.3763L7.13699 71.5998L19.6333 88.0111L25.7109 83.3914L25.9596 83.5762C30.3524 86.8365 35.338 89.2123 40.6387 90.5715L40.947 90.6515L40.9449 97.1787ZM61.5865 82.9725V78.5848H40.9449V82.9725L40.4064 82.798C33.3315 80.5015 27.168 76.0227 22.802 70.0058C18.4361 63.9889 16.0927 56.7438 16.109 49.3124C16.1252 41.881 18.5001 34.6462 22.8923 28.6484C27.2844 22.6505 33.4675 18.1986 40.5524 15.933L41.0888 15.7605V21.0578H61.7304V15.8488L62.2689 16.0274C69.3089 18.3465 75.4352 22.8288 79.7727 28.834C84.1102 34.8393 86.437 42.0603 86.4208 49.4655C86.4047 56.8708 84.0463 64.0816 79.6826 70.0678C75.3188 76.0541 69.173 80.5096 62.1229 82.798L61.5865 82.9725ZM40.1228 77.7635H62.4086V81.8391C69.1635 79.5213 75.027 75.1574 79.1831 69.3549C83.3392 63.5523 85.5812 56.5998 85.5971 49.4649C85.6129 42.33 83.4018 35.3676 79.2714 29.5467C75.1411 23.7259 69.297 19.3361 62.5525 16.9883V21.8791H40.2667V16.8898C33.4771 19.1861 27.5768 23.547 23.3928 29.3614C19.2087 35.1758 16.9505 42.1522 16.9346 49.313C16.9188 56.4738 19.146 63.4602 23.3043 69.293C27.4626 75.1258 33.3434 79.5128 40.1228 81.8391V77.7635Z" fill="#694C32"/>
</svg>
