<svg width="68" height="44" viewBox="0 0 68 44" fill="none" xmlns="http://www.w3.org/2000/svg">
<g clip-path="url(#clip0_301_1846)">
<path d="M21.3885 18.3227C25.2045 18.3227 28.298 15.2117 28.298 11.3741C28.298 7.53652 25.2045 4.42554 21.3885 4.42554C17.5726 4.42554 14.4791 7.53652 14.4791 11.3741C14.4791 15.2117 17.5726 18.3227 21.3885 18.3227Z" fill="#72baa9"/>
<path d="M65.5597 0H39.4328C38.0837 0 36.99 1.09988 36.99 2.45665V18.3865C36.99 19.7433 38.0837 20.8432 39.4328 20.8432H65.5597C66.9088 20.8432 68.0025 19.7433 68.0025 18.3865V2.45665C68.0025 1.09988 66.9088 0 65.5597 0Z" fill="#72baa9"/>
<path d="M47.6348 4.47661H41.2891C40.5822 4.47661 40.0092 5.05284 40.0092 5.76367C40.0092 6.47449 40.5822 7.05072 41.2891 7.05072H47.6348C48.3416 7.05072 48.9146 6.47449 48.9146 5.76367C48.9146 5.05284 48.3416 4.47661 47.6348 4.47661Z" fill="#E0F3E1"/>
<path d="M47.6348 10.654H41.2891C40.5822 10.654 40.0092 11.2302 40.0092 11.941C40.0092 12.6519 40.5822 13.2281 41.2891 13.2281H47.6348C48.3416 13.2281 48.9146 12.6519 48.9146 11.941C48.9146 11.2302 48.3416 10.654 47.6348 10.654Z" fill="#E0F3E1"/>
<path d="M58.1754 8.64678H63.6502C63.6511 7.68728 63.4026 6.74421 62.9295 5.91102C62.4563 5.07784 61.7748 4.38347 60.9526 3.89675C60.1304 3.41002 59.196 3.14784 58.2419 3.13618C57.2879 3.12452 56.3474 3.3638 55.5137 3.83029C54.68 4.29678 53.9819 4.97429 53.4888 5.79566C52.9956 6.61704 52.7244 7.55377 52.7022 8.513C52.6799 9.47223 52.9073 10.4207 53.3618 11.2643C53.8163 12.1079 54.4821 12.8175 55.2933 13.3226L58.1754 8.64678Z" fill="#E0F3E1"/>
<path d="M40.3927 9.10389C39.3364 8.32246 37.5004 7.82705 36.7361 9.19327C33.5493 15.2966 30.1644 18.6419 23.5978 20.4295C20.5506 21.2543 14.1668 22.1251 9.17705 26.3234C2.03146 32.8251 1.60485 37.5519 1.5236 38.959C1.5236 40.1746 1.45503 41.1297 2.98623 42.049C4.51743 42.9683 5.87342 42.3171 6.66568 40.5908C7.45795 38.8645 8.52445 33.7367 13.7757 30.0416V42.2992H29.1258V29.1988C29.1512 26.612 31.2182 23.7493 35.2963 20.6134C37.7341 18.2921 40.0194 15.8533 41.157 12.5207C41.6624 11.415 41.4491 9.88532 40.3927 9.10389Z" fill="#72baa9"/>
<path d="M46.548 42.2992L52.0557 27.3704H51.3625C50.0039 27.3704 48.4423 27.3423 47.7541 26.2749L41.9137 42.2992H46.548Z" fill="#72baa9"/>
<path d="M63.0687 42.2992L57.2486 26.4868C56.5452 27.2376 55.4254 27.3704 54.3208 27.3704H52.9876L58.4852 42.2992H63.0687Z" fill="#72baa9"/>
<g opacity="0.74">
<path d="M47.1548 20.8432V21.0143C47.1555 22.0426 47.5622 23.0286 48.2855 23.7555C49.0088 24.4824 49.9895 24.8908 51.012 24.8908H53.978C55.0005 24.8908 55.9812 24.4824 56.7045 23.7555C57.4278 23.0286 57.8345 22.0426 57.8352 21.0143V20.8432H47.1548Z" fill="#72baa9"/>
</g>
<path d="M38.2622 8.33268C39.0326 8.36766 39.7749 8.63456 40.3927 9.09878C41.449 9.88021 41.6623 11.4099 41.1545 12.5156C40.0169 15.8354 37.7315 18.2869 35.2938 20.6082C31.2182 23.7493 29.1512 26.612 29.1334 29.1988V42.2992H13.7833V30.0416C8.52444 33.7367 7.45539 38.8645 6.67329 40.5908C6.1248 41.786 5.3046 42.4678 4.34475 42.4678C3.8649 42.4546 3.39777 42.3098 2.99384 42.049C1.47026 41.1297 1.5312 40.1746 1.5312 38.959C1.61246 37.5519 2.03906 32.8302 9.18466 26.3208C14.1668 22.1226 20.5455 21.2518 23.5977 20.4295C30.1644 18.6419 33.5493 15.2991 36.7361 9.19327C36.8834 8.9198 37.1046 8.69386 37.3742 8.54156C37.6438 8.38926 37.9508 8.31684 38.2597 8.33268M38.2597 6.80046C37.6794 6.7849 37.106 6.93007 36.6021 7.22011C36.0983 7.51016 35.6835 7.9339 35.403 8.44504V8.46291V8.48079C32.1882 14.6428 28.9988 17.3829 23.2143 18.9509C22.7344 19.0811 22.1605 19.2063 21.4952 19.3697C17.9757 20.1818 12.6533 21.4127 8.21211 25.1512L8.18925 25.1691L8.1664 25.1896C4.61137 28.4072 0.319952 33.3997 0 38.8696V39.1071C0 40.3431 0 42.0362 2.20412 43.3641C2.84388 43.7684 3.58167 43.9883 4.33713 44C5.89118 44 7.24209 42.9785 8.04959 41.2318C8.20703 40.8845 8.36193 40.4657 8.53968 39.9728C9.14149 38.29 10.0785 35.7516 12.2598 33.3869V43.8315H30.657V29.1988C30.657 27.1559 32.5945 24.6175 36.2232 21.8315L36.2866 21.7829L36.345 21.7268C38.6837 19.4999 41.284 16.8135 42.579 13.0825C43.3789 11.2362 42.833 8.99663 41.2941 7.87046C40.4165 7.20967 39.358 6.83614 38.2622 6.80046H38.2597Z" fill="#E0F3E1"/>
</g>
<defs>
<clipPath id="clip0_301_1846">
<rect width="68" height="44" fill="white"/>
</clipPath>
</defs>
</svg>
